PathFileType	4	(X/Y/Z)	/Users/itak/Documents/Research/Walk-IL/dataset/trc/00296_00010.trc
DataRate	CameraRate	NumFrames	NumMarkers	Units	OrigDataRate	OrigDataStartFrame	OrigNumFrames
100.000000	100.000000	4	53	mm	100.000000	167	669
Frame#	Time	RPSI			LPSI			L3			STRN			T10			C7			CLAV			RBAK			LBAK			LSHO			LUPA			LAEL			LAOL			LWTS			LWPS			LFRA			LIFD			LHPS			LHTS			RSHO			RUPA			RAEL			RAOL			RWTS			RWPS			RFRA			RIFD			RHTS			RHPS			RBHD			LFHD			RFHD			LBHD			RHIP			RASI			LASI			LKNE			LTHI			LANK			LTIP			LTOE			LMT1			LMT5			LHEE			RKNE			RTHI			RANK			RTIP			RTOE			RMT1			RMT5			RHEE			LHIP			
		X1	Y1	Z1	X2	Y2	Z2	X3	Y3	Z3	X4	Y4	Z4	X5	Y5	Z5	X6	Y6	Z6	X7	Y7	Z7	X8	Y8	Z8	X9	Y9	Z9	X10	Y10	Z10	X11	Y11	Z11	X12	Y12	Z12	X13	Y13	Z13	X14	Y14	Z14	X15	Y15	Z15	X16	Y16	Z16	X17	Y17	Z17	X18	Y18	Z18	X19	Y19	Z19	X20	Y20	Z20	X21	Y21	Z21	X22	Y22	Z22	X23	Y23	Z23	X24	Y24	Z24	X25	Y25	Z25	X26	Y26	Z26	X27	Y27	Z27	X28	Y28	Z28	X29	Y29	Z29	X30	Y30	Z30	X31	Y31	Z31	X32	Y32	Z32	X33	Y33	Z33	X34	Y34	Z34	X35	Y35	Z35	X36	Y36	Z36	X37	Y37	Z37	X38	Y38	Z38	X39	Y39	Z39	X40	Y40	Z40	X41	Y41	Z41	X42	Y42	Z42	X43	Y43	Z43	X44	Y44	Z44	X45	Y45	Z45	X46	Y46	Z46	X47	Y47	Z47	X48	Y48	Z48	X49	Y49	Z49	X50	Y50	Z50	X51	Y51	Z51	X52	Y52	Z52	X53	Y53	Z53	

168	1.67	-287.9471435546875	989.52294921875	895.1996459960938	-418.867431640625	980.08349609375	1010.646667480469	-358.1898803710938	1054.405883789062	936.9345092773438	-533.8504638671875	1233.94140625	768.6427612304688	-337.4334716796875	1165.723876953125	943.1573486328125	-374.1559448242188	1411.446655273438	925.4176635742188	-487.9335327148438	1332.227172851562	816.2060546875	-284.5822448730469	1273.85546875	905.6477661132812	-431.3790283203125	1376.591064453125	1011.591491699219	-533.6033325195312	1389.032104492188	992.7139892578125	-541.6036376953125	1285.061401367188	1083.453002929688	-525.3480834960938	1087.844360351562	1125.773803710938	-442.6203308105469	1079.1259765625	1098.397705078125	-566.697021484375	857.9217529296875	1073.178833007812	-561.1624755859375	851.9573364257812	1143.78662109375	-535.5545654296875	983.8313598632812	1140.4833984375	-551.0299682617188	674.1436767578125	1087.980346679688	-556.7147827148438	763.257080078125	1148.011474609375	-588.3545532226562	756.9874877929688	1090.496826171875	-316.6204833984375	1388.690063476562	766.450439453125	-270.5575561523438	1328.702758789062	719.6470947265625	-261.8038024902344	1068.53125	638.4107666015625	-289.8187561035156	1046.476440429688	725.5746459960938	-472.9528198242188	957.1536865234375	567.730712890625	-409.5321960449219	923.3150634765625	523.0567016601562	-302.4515991210938	1025.16455078125	597.2803344726562	-582.2791137695312	819.43701171875	509.2245788574219	-548.5020751953125	888.0387573242188	503.8623962402344	-490.2364807128906	854.5260620117188	480.3580932617188	-352.9719848632812	1576.046142578125	840.9483032226562	-551.3131103515625	1581.685302734375	763.0414428710938	-474.9132385253906	1570.023559570312	713.2557983398438	-473.862548828125	1584.859497070312	922.1679077148438	-275.6523132324219	935.8544311523438	751.8515625	-407.8360290527344	938.8634643554688	709.879150390625	-590.2111206054688	943.6422729492188	884.2096557617188	-683.5878295898438	512.1597290039062	829.4866333007812	-653.3787231445312	635.8126220703125	897.6903076171875	-734.6731567382812	58.42688751220703	852.7221069335938	-720.8977661132812	286.3991088867188	842.5065307617188	-756.0816650390625	91.39947509765625	646.7591552734375	-695.5946655273438	60.68614196777344	690.1871948242188	-791.3478393554688	73.98644256591797	746.2232666015625	-664.2791137695312	42.91756439208984	872.202392578125	-343.1026306152344	462.3602600097656	829.53125	-329.7684936523438	714.90869140625	740.802978515625	-287.5820007324219	46.77974700927734	980.34814453125	-361.3504943847656	339.7887268066406	867.8203125	-490.7324829101562	44.60946273803711	958.7474365234375	-450.4571533203125	42.4576530456543	1015.896484375	-377.3769226074219	39.98655700683594	923.9081420898438	-258.0106811523438	44.24345016479492	1045.2763671875	-539.2154541015625	933.6891479492188	1020.014221191406	
169	1.68	-295.0630187988281	987.6437377929688	891.0811767578125	-427.4312744140625	977.8762817382812	1004.893493652344	-365.463623046875	1052.853881835938	931.9401245117188	-539.3565673828125	1232.127807617188	761.65673828125	-344.5758666992188	1163.99169921875	938.2067260742188	-381.3134460449219	1409.618286132812	919.813232421875	-494.0313415527344	1330.447265625	809.72998046875	-291.2617492675781	1272.1630859375	901.0972290039062	-439.1154479980469	1374.740844726562	1005.478881835938	-541.1676025390625	1387.155029296875	985.8661499023438	-549.2426147460938	1283.551635742188	1076.93505859375	-532.0033569335938	1086.735473632812	1120.350463867188	-449.1800537109375	1078.192504882812	1093.059448242188	-571.8360595703125	856.1585083007812	1069.458374023438	-566.2109375	850.7117309570312	1140.150390625	-541.5181884765625	982.7101440429688	1135.87060546875	-555.2164916992188	672.5912475585938	1085.458374023438	-561.23681640625	762.0675659179688	1144.990966796875	-592.9712524414062	755.2450561523438	1087.404663085938	-322.1923522949219	1386.79736328125	761.3992309570312	-275.7819519042969	1326.78125	714.9613647460938	-266.8592834472656	1066.734741210938	633.1023559570312	-294.9395141601562	1044.435546875	720.172119140625	-479.9477233886719	959.3226318359375	563.0182495117188	-417.4857788085938	924.714599609375	517.6044311523438	-308.3544006347656	1024.267822265625	591.8602905273438	-592.6224365234375	824.3118286132812	504.6786193847656	-557.4371948242188	892.2509765625	499.4165344238281	-500.2073669433594	857.7202758789062	475.0909423828125	-359.5641174316406	1574.144287109375	835.9032592773438	-557.024169921875	1579.720458984375	755.7272338867188	-480.0156860351562	1568.140014648438	706.8335571289062	-481.4050903320312	1582.880493164062	915.7334594726562	-281.019775390625	934.2672729492188	747.778076171875	-412.6097717285156	937.11328125	704.089111328125	-597.0040893554688	942.08740234375	876.2804565429688	-690.1257934570312	510.8993530273438	819.5740966796875	-660.9539794921875	634.1907348632812	888.9692993164062	-752.6316528320312	57.33282089233398	823.475341796875	-732.724853515625	285.7120971679688	823.4007568359375	-764.4934692382812	98.89437103271484	618.0433959960938	-706.731689453125	65.29422760009766	662.8734741210938	-804.7171630859375	77.99014282226562	715.2081909179688	-683.2850341796875	40.0569953918457	845.4529418945312	-346.2926635742188	461.1309509277344	826.5813598632812	-333.7114562988281	713.4395141601562	736.72998046875	-287.9989013671875	46.96337890625	980.939453125	-363.7213439941406	338.5970153808594	865.7520141601562	-490.8637390136719	44.54344940185547	958.6282348632812	-450.7330932617188	42.42153549194336	1015.885009765625	-377.4586181640625	40.0610237121582	924.0723266601562	-258.4961547851562	44.95048141479492	1045.97802734375	-547.9037475585938	931.61376953125	1012.674133300781	
170	1.69	-302.1788330078125	985.5513305664062	886.7850952148438	-435.9776916503906	975.3965454101562	998.982177734375	-372.7198181152344	1051.11279296875	926.8214111328125	-544.9539184570312	1230.167724609375	754.6353149414062	-351.728271484375	1162.163818359375	933.1693725585938	-388.5395812988281	1407.700073242188	914.1087036132812	-500.2102661132812	1328.510498046875	803.1598510742188	-297.9925537109375	1270.387817382812	896.440185546875	-446.8592834472656	1372.799682617188	999.2926635742188	-548.7730712890625	1385.15234375	978.962890625	-556.9526977539062	1281.854125976562	1070.32666015625	-538.8251342773438	1085.430541992188	1114.776245117188	-455.9268798828125	1077.025634765625	1087.558471679688	-577.1635131835938	854.2003784179688	1065.694091796875	-571.3978881835938	849.3186645507812	1136.494873046875	-547.6380004882812	981.4026489257812	1131.15625	-559.6080322265625	670.8732299804688	1082.9609375	-565.9031372070312	760.7308959960938	1141.955932617188	-597.769775390625	753.3325805664062	1084.34912109375	-327.8930358886719	1384.7744140625	756.2276611328125	-281.101318359375	1324.742919921875	710.1604614257812	-271.828857421875	1064.7744140625	627.8219604492188	-300.0001525878906	1042.246826171875	714.8272705078125	-486.6220092773438	961.0371704101562	558.3641967773438	-425.0283203125	925.7037963867188	512.2886962890625	-314.0914306640625	1023.131958007812	586.5072631835938	-602.4534912109375	828.7218627929688	500.2952270507812	-565.9152221679688	895.9413452148438	495.0570373535156	-509.704345703125	860.4218139648438	469.9938354492188	-366.1988220214844	1572.143676757812	830.7642822265625	-562.7540283203125	1577.66943359375	748.3309936523438	-485.1477966308594	1566.156372070312	700.314208984375	-488.9660034179688	1580.83544921875	909.17431640625	-286.5010375976562	932.5455932617188	743.5120849609375	-417.5422668457031	935.275146484375	698.149169921875	-603.8053588867188	940.4488525390625	868.2576293945312	-696.6664428710938	509.4391784667969	809.6925048828125	-668.6189575195312	632.4052124023438	880.1386108398438	-768.8909912109375	56.86869049072266	795.4373168945312	-743.6818237304688	285.1679077148438	805.0272827148438	-772.359130859375	106.3569946289062	591.1602172851562	-717.1536254882812	69.97720336914062	636.9324951171875	-816.9234619140625	82.35678100585938	686.0100708007812	-700.614013671875	37.90717315673828	819.4838256835938	-349.484619140625	459.9114990234375	823.6331176757812	-337.7986755371094	711.88623046875	732.5223388671875	-288.452880859375	47.21229553222656	981.6295166015625	-366.0872192382812	337.4180297851562	863.671142578125	-491.028564453125	44.45755004882812	958.4794311523438	-451.0418701171875	42.42527008056641	1015.862976074219	-377.5420227050781	40.15493011474609	924.272216796875	-259.0504150390625	45.79345321655273	1046.810791015625	-556.527587890625	929.3038940429688	1005.167053222656	
171	1.7	-309.3283996582031	983.2809448242188	882.3148803710938	-444.5487365722656	972.687744140625	992.9031982421875	-379.94873046875	1049.181640625	921.5785522460938	-550.6394653320312	1228.094360351562	747.5733032226562	-358.8901062011719	1160.270141601562	928.0374145507812	-395.8328857421875	1405.715576171875	908.3106689453125	-506.4591369628906	1326.440551757812	796.4952392578125	-304.7853393554688	1268.554077148438	891.6741333007812	-454.6318359375	1370.785522460938	993.03515625	-556.4331665039062	1383.040893554688	971.9920654296875	-564.755126953125	1279.988891601562	1063.614990234375	-545.82373046875	1083.949462890625	1109.02783203125	-462.8735046386719	1075.641845703125	1081.879760742188	-582.6923217773438	852.0570068359375	1061.8720703125	-576.7450561523438	847.8018188476562	1132.795043945312	-553.9359130859375	979.930908203125	1126.3173828125	-564.1485595703125	669.0022583007812	1080.508178710938	-570.7257690429688	759.261962890625	1138.884155273438	-602.7239990234375	751.2440185546875	1081.3251953125	-333.7217102050781	1382.662841796875	750.9453735351562	-286.5150451660156	1322.632690429688	705.2494506835938	-276.728515625	1062.692504882812	622.596435546875	-305.0196533203125	1039.96533203125	709.56005859375	-492.9787292480469	962.2847900390625	553.7415161132812	-432.1569519042969	926.2667846679688	507.0986938476562	-319.6600646972656	1021.784484863281	581.2418823242188	-611.7268676757812	832.5960693359375	496.029296875	-573.9035034179688	899.0568237304688	490.7427978515625	-518.6671752929688	862.5794677734375	465.0523986816406	-372.8739013671875	1570.074951171875	825.5340576171875	-568.4990234375	1575.54638671875	740.848388671875	-490.310546875	1564.0888671875	693.703857421875	-496.5413513183594	1578.7470703125	902.5052490234375	-292.093505859375	930.710205078125	739.0614624023438	-422.6134338378906	933.3755493164062	692.05419921875	-610.6407470703125	938.76220703125	860.1099243164062	-703.2176513671875	507.8236999511719	799.7794799804688	-676.3270263671875	630.4642944335938	871.1170654296875	-783.4432373046875	56.84963989257812	769.021728515625	-753.793701171875	284.6788330078125	787.4889526367188	-779.7658081054688	113.4241943359375	566.2943115234375	-726.8575439453125	74.46883392333984	612.622314453125	-828.0098876953125	86.80835723876953	658.9500732421875	-716.2229614257812	36.32061767578125	794.7347412109375	-352.6460876464844	458.7177429199219	820.6836547851562	-341.9964904785156	710.2589111328125	728.1846923828125	-288.9198608398438	47.5487174987793	982.3817749023438	-368.432861328125	336.268798828125	861.5609741210938	-491.2303466796875	44.33706283569336	958.2984008789062	-451.3614196777344	42.49116134643555	1015.824890136719	-377.6285705566406	40.27822494506836	924.50390625	-259.6554260253906	46.79281997680664	1047.7470703125	-565.1300659179688	926.8031005859375	997.4917602539062	
